<svg xmlns="http://www.w3.org/2000/svg" xmlns:xlink="http://www.w3.org/1999/xlink" viewBox="0,0,256,256" width="100px" height="100px"><g fill="#416f95" fill-rule="nonzero" stroke="none" stroke-width="1" stroke-linecap="butt" stroke-linejoin="miter" stroke-miterlimit="10" stroke-dasharray="" stroke-dashoffset="0" font-family="none" font-weight="none" font-size="none" text-anchor="none" style="mix-blend-mode: normal"><g transform="scale(5.12,5.12)"><path d="M25,8c-9.389,0 -17,7.611 -17,17c0,9.389 7.611,17 17,17c9.389,0 17,-7.611 17,-17c0,-9.389 -7.611,-17 -17,-17zM25,9c3.95129,0 7.56225,1.43905 10.35352,3.8125c-1.26811,0.33108 -2.12305,1.54059 -2.12305,2.84766c0,1.373 0.79372,2.5342 1.63672,3.9082c0.636,1.109 1.375,2.5338 1.375,4.5918c0,1.429 -0.42258,3.21981 -1.26758,5.38281l-1.66211,5.55664l-6.01953,-17.9043c1.002,-0.054 1.90625,-0.16016 1.90625,-0.16016c0.896,-0.107 0.79258,-1.42305 -0.10742,-1.37305c0,0 -2.6965,0.21094 -4.4375,0.21094c-1.634,0 -4.38477,-0.21094 -4.38477,-0.21094c-0.896,-0.053 -1.00547,1.32005 -0.10547,1.37305c0,0 0.84805,0.10625 1.74805,0.15625l2.5918,7.11133l-3.64453,10.93164l-6.0625,-18.04102c1.003,-0.054 1.9043,-0.1582 1.9043,-0.1582c0.896,-0.107 0.79453,-1.425 -0.10547,-1.375c0,0 -2.69845,0.21289 -4.43945,0.21289c-0.08392,0 -0.18639,-0.00193 -0.28516,-0.00391c2.89077,-4.14843 7.68891,-6.86914 13.12891,-6.86914zM39.72656,18.73828c0.81869,1.92328 1.27344,4.03941 1.27344,6.26172c0,5.6198 -2.90315,10.55409 -7.28516,13.4082l4.74414,-13.71875c0.94752,-2.3718 1.26593,-4.26746 1.26758,-5.95117zM10.12305,19.14063l7.2793,19.94141c-5.00313,-2.70468 -8.40234,-7.99509 -8.40234,-14.08203c0,-2.07069 0.40708,-4.04313 1.12305,-5.85937zM25.29492,26.45313l4.98047,13.63867c-1.65388,0.57826 -3.42411,0.9082 -5.27539,0.9082c-1.55976,0 -3.06301,-0.23232 -4.48828,-0.64844z"></path></g></g></svg>